{"accessors" : [{"bufferView" : 0, "byteOffset" : 0, "componentType" : 5123, "count" : 13242, "type" : "SCALAR", "max" : [10500], "min" : [0]}, {"bufferView" : 1, "byteOffset" : 0, "componentType" : 5126, "count" : 10501, "type" : "VEC3", "max" : [1752.00927734375, 927.5128173828125, 1045.7269287109375], "min" : [-1778.4134521484375, 6.46120023727417, 1.0507999658584595], "name" : "POSITION"}, {"bufferView" : 1, "byteOffset" : 12, "componentType" : 5126, "count" : 10501, "type" : "VEC2", "max" : [0.9922000169754028, -0.0038999998942017555], "min" : [0.0038999998942017555, -0.9961000084877014], "name" : "TEXCOORD_0"}, {"bufferView" : 1, "byteOffset" : 20, "componentType" : 5126, "count" : 10501, "type" : "VEC3", "max" : [1.0000044107437134, 1.0000044107437134, 1.0000044107437134], "min" : [-1.0000044107437134, -1.0000044107437134, -1.0000044107437134], "name" : "NORMAL"}], "asset" : {"generator" : "Aspose.3D 22.1", "version" : "2.0"}, "buffers" : [{"uri" : "data:application/octet-stream;base64,", "byteLength" : 450236}], "bufferViews" : [{"buffer" : 0, "byteOffset" : 0, "byteLength" : 26484, "target" : 34963}, {"buffer" : 0, "byteOffset" : 26488, "byteLength" : 423744, "byteStride" : 32, "target" : 34962}], "meshes" : [{"primitives" : [{"attributes" : {"POSITION" : 1, "TEXCOORD_0" : 2, "NORMAL" : 3}, "indices" : 0, "mode" : 4}], "name" : ""}], "nodes" : [{"mesh" : 0, "name" : "Rectangle001"}], "scene" : 0, "scenes" : [{"nodes" : [0]}]}